<svg xmlns="http://www.w3.org/2000/svg" xmlns:xlink="http://www.w3.org/1999/xlink" viewBox="0 0 177.06 110.82" xmlns:v="https://vecta.io/nano"><path d="M47.93 86.17l.24-.24c-.48-.24-1.22-.5-2.03-.5-.53 0-1.07.17-1.4.53.32-.2.73-.3 1.13-.3.82-.01 1.58.27 2.06.51zm-8.63 8.82l-1.15-2.79h-4.41l-.1.23h4.23l1.16 2.79h2.02l-.12-.23zm17.45-8.82l.24-.24c-.48-.24-1.22-.5-2.03-.5-.53 0-1.08.17-1.4.53.32-.2.73-.3 1.12-.3.83-.01 1.59.27 2.07.51zm8.22 1.15l-.19-.6-.19.51.1.32 1.32 3.27h.37zm-8.61 5.17a1.54 1.54 0 0 1-.4 1.08c.41-.27.67-.7.67-1.3 0-2.04-5.18-2.14-5.18-5.1 0-.84.36-1.6.97-2.17-.78.58-1.25 1.44-1.25 2.4.01 2.94 5.19 3.04 5.19 5.09zM28.43 84.7c-.99-.83-2.15-1.3-3.5-1.3-1.18 0-2.2.44-3 1.15a4.46 4.46 0 0 1 2.72-.92c1.36 0 2.53.47 3.53 1.32l.25-.25zm19.11 7.79a1.54 1.54 0 0 1-.4 1.08c.41-.27.67-.7.67-1.3 0-2.04-5.18-2.14-5.18-5.1 0-.84.36-1.6.97-2.17-.78.58-1.24 1.44-1.24 2.4.01 2.94 5.18 3.04 5.18 5.09zm-22.8 2.79c-3.4 0-6.67-2.22-6.67-6.41 0-2.16.91-4 2.35-5.25-1.6 1.24-2.62 3.18-2.62 5.48 0 4.19 3.28 6.41 6.67 6.41 2.74 0 4.81-1.49 5.08-1.69l-.02-.02c-.72.46-2.53 1.48-4.79 1.48zm11.47-7.96l-.19-.6-.18.51.09.32 1.32 3.27h.37zm-5.28 7.67l4.61-10.55-.19.04-4.7 10.74h1.62l.1-.23zm118.35-9.39h4.07v.23h-4.07zm12.37 5l.05.06a4.34 4.34 0 0 0 .77-.56c-.25.19-.53.36-.82.5zm-10.77-.44h-1.6v.22h1.37zm10.23-.94c.57-.4.94-1.01.94-1.69 0-1.27-1.15-1.92-2.49-1.92h-1.13v.23h.86c1.33 0 2.49.65 2.49 1.92 0 .56-.26 1.07-.67 1.46zm-67-2.98c-.82-.68-1.77-1.06-2.88-1.06-1 0-1.86.38-2.52.99.62-.47 1.39-.76 2.25-.76 1.12 0 2.08.39 2.91 1.08l.24-.25zm21.17 4.97l4.71-6.73h-.11l-4.66 6.65zM76.4 89.22c.56-.4.94-1.01.94-1.69 0-1.27-1.15-1.92-2.49-1.92h-1.13v.23h.86c1.33 0 2.49.65 2.49 1.92-.01.56-.26 1.07-.67 1.46zm.53 1.38l.05.06a4.34 4.34 0 0 0 .77-.56c-.25.19-.52.36-.82.5zm24.87-3.28l-.18-.6-.19.51.1.32 1.32 3.27h.37zm3.1 7.67l-1.16-2.79h-4.4l-.1.22h4.23l1.15 2.8h2.03l-.12-.23zm19.67 0v-9.16l-.22-1.35h-.32l.27 1.58v9.16h1.92l-.04-.23zm14.2 0v-9.16l-.22-1.35h-.31l.26 1.58v9.16h5.53l.22-.23zm-8.79 0v-9.16l-.22-1.35h-.32l.27 1.58v9.16h5.49l.22-.23zm-10.45 0v-7.3l-.28.47v7.06h1.92l-.03-.23zm48.3 0v-9.16l-.22-1.35h-.31l.26 1.58v9.16h1.92l-.03-.23zm-20.27 0v-9.16l-.22-1.35h-.31l.26 1.58v9.16h5.48l.23-.23zm15.63 0l-.39-.42-2.85-3.52-1.52.02v.22l1.24-.02 2.86 3.53.39.42h2.19l-.19-.23zm-52.22-6.25l-.56-1.03v.73l.29.53 4.23 5.13.21-.3zm45.74 6.25v-9.16l-.22-1.35h-.31l.26 1.58v9.16h1.92l-.04-.23zm-47.84 0v-9.18l-.21-1.32-.31-.01.25 1.56v9.18h1.73l-.03-.23zm-40.81 0l-1.15-2.79H62.5l-.1.23h4.23l1.16 2.79h2.02l-.12-.23zm-8.37 0l4.61-10.55-.2.04-4.69 10.74h1.62l.1-.23zm-4.96.26c-2.16 0-3.28-1.21-3.28-1.21l-.02-.05.69-.7c-.01 0-.02-.01-.03-.02l-.94.94.02.05s1.11 1.21 3.28 1.21c1.15 0 2.09-.34 2.73-.94-.62.46-1.45.72-2.45.72zM72 94.99v-9.16l-.23-1.35h-.31l.26 1.58v9.16h1.92l-.03-.23zm8.78 1.92a10.1 10.1 0 0 1-2.62-2.27l-.07-.08-2.85-3.52-1.52.02v.22l1.24-.02 2.85 3.52.07.08c.72.87 1.59 1.65 2.62 2.27 3.01 1.81 6.56 1.88 9.46.5l-.86.23a10 10 0 0 1-8.32-.95zm15.75-1.92l4.61-10.55-.2.04-4.69 10.74h1.62l.1-.23zm-5.47.22c-2.9 0-5.7-1.89-5.7-5.48 0-1.83.77-3.4 1.98-4.46-1.37 1.06-2.26 2.72-2.26 4.69 0 3.58 2.8 5.48 5.7 5.48 2.36 0 4.14-1.29 4.34-1.45l-.02-.02c-.62.41-2.14 1.24-4.04 1.24zm-45.14.04c-2.16 0-3.28-1.21-3.28-1.21l-.02-.05.69-.7c-.01-.01-.02-.01-.03-.02l-.94.94.02.05s1.11 1.21 3.27 1.21c1.15 0 2.09-.34 2.73-.94-.61.46-1.45.72-2.44.72zm74.01-74.19h-6.62c-.92-.95-1.93-1.81-3.02-2.57l2.28-6.29h-5.95a21.16 21.16 0 0 0-12.58-4.13c-11.76 0-21.3 9.53-21.3 21.3 0 3.81 1 7.39 2.76 10.49l2.88 4.07c.29.55.61 1.09.96 1.62l14.47 20.32c-11.52-3.14-20.02-13.61-20.18-26.09l-.12-.17-.3-.55v.24c0 12.93 8.77 23.8 20.69 27.01 11.92-3.2 20.69-14.08 20.69-27.01a27.89 27.89 0 0 0-.96-7.3l1.41-2.45c.91 2.89 1.41 5.97 1.41 9.17 0 14.1-9.57 25.96-22.56 29.45-12.99-3.49-22.56-15.35-22.56-29.45 0-1.26.08-2.5.23-3.72a22.35 22.35 0 0 1-.93-6.04 33.21 33.21 0 0 0-1.41 9.62c0 15.42 10.46 28.39 24.68 32.21 14.21-3.82 24.68-16.79 24.68-32.21 0-4.06-.73-7.96-2.06-11.56l3.41-5.96zm-8.4 1.63l.06.06h0c.27.27.53.63.78.92h3.33L103.45 44.9h-4.63l.64-3.65-.66-1.86h3.88l6.73-18.54a17.7 17.7 0 0 1 2.12 1.84zM76.46 36.36a18.89 18.89 0 0 1-1.34-6.99c0-10.43 8.49-18.92 18.92-18.92 4.06 0 7.92 1.27 11.17 3.66l.75.6h3.13l-.9 2.48a21.54 21.54 0 0 0-6.48-2.24c-11.62-2.05-23.3 5.65-24.98 17.33a25.62 25.62 0 0 0-.27 4.08zm4.85 7.83c-2.23-3.36-2.9-6.83-2.21-11.57C80.38 23.72 88.48 17 97.94 17c1.12 0 2.25.1 3.36.29 2.16.38 4.2 1.12 6.06 2.18l-6.31 17.37-3.13.03-3.08-8.75-.5.44c-3.23 2.7-4.4 7-4.1 10.5.26 3.84 3.56 7.64 3.56 7.64 2.1 2.6 3.05 4.54 2.99 7.8-.03 1.89-1.24 4.51-3.01 7.08L81.31 44.19zM97 41.47l-.76 4.27c-.25-.35-.51-.71-.8-1.08-.9-1.48-2.37-3.19-2.67-5.52-.42-2.84 1.18-5.95 1.18-5.95L97 41.47zm17.18-2.04c0 12.62-8.54 23.25-20.15 26.43.76-1.04 5.27-7.33 5.27-11.47-.02-2.81-.52-4.72-2-7.1h7.54l8.48-14.72c.55 2.19.86 4.49.86 6.86z" fill="#ba8748"/><g fill="#fff"><path d="M58.59 84.4l.01-.03a6.18 6.18 0 0 0-3.07-.81c-2.08 0-3.56 1.41-3.56 3.11 0 2.95 5.18 3.05 5.18 5.1 0 1.07-.83 1.62-1.86 1.62-.98 0-1.83-.44-2.39-.83l-.94.94.02.05s1.11 1.21 3.28 1.21c2.22 0 3.66-1.27 3.66-3.21 0-3.34-5.14-3.05-5.14-5.3 0-.89.87-1.32 1.7-1.32s1.59.28 2.06.52l1.05-1.05zm-8.82 0l.01-.03a6.18 6.18 0 0 0-3.07-.81c-2.08 0-3.56 1.41-3.56 3.11 0 2.95 5.18 3.05 5.18 5.09 0 1.07-.83 1.62-1.86 1.62-.98 0-1.83-.44-2.39-.83l-.94.94.02.05s1.11 1.21 3.28 1.21c2.22 0 3.66-1.27 3.66-3.21 0-3.34-5.14-3.05-5.14-5.3 0-.89.87-1.32 1.7-1.32s1.59.28 2.06.52l1.05-1.04zm-19.64-1.33a7.06 7.06 0 0 0-4.6-1.62c-3.86 0-6.96 2.94-6.96 6.94 0 4.19 3.28 6.41 6.67 6.41 2.74 0 4.81-1.49 5.08-1.69l-1.06-1.06c-.84.48-2.31 1.19-3.68 1.19-2.46 0-4.96-1.89-4.96-5.04 0-2.71 1.96-5.29 4.81-5.29 1.36 0 2.53.47 3.53 1.32l1.17-1.16z"/><use xlink:href="#B"/><use xlink:href="#B" x="28.76"/><path d="M75.36 89.23h-1.13v-4.1h1.13c1.33 0 2.49.65 2.49 1.92-.01 1.19-1.16 2.18-2.49 2.18m15.39 7.7c-2.45.77-5.23.52-7.63-.92-.92-.55-1.72-1.24-2.38-2.02l-3.3-3.87c1.33-.63 2.22-1.84 2.22-3.07 0-2.24-1.96-3.28-3.98-3.28h-3.44l.26 1.58v9.16h1.92l-.2-1.31v-2.61l1.52-.02 2.85 3.52.07.08c.72.87 1.59 1.65 2.62 2.27 3.01 1.8 6.57 1.87 9.47.49m12.98-6.59h-3.34l1.52-3.5.22-.61.18.61 1.42 3.5zm3.7 4.16l-.97-1.9-3.7-9.06-1.03.22-4.7 10.74h1.62l1.19-2.79h4.41l1.15 2.79h2.03zm29.94-1.39h-5.16v-9.34h-1.98l.26 1.58v9.16h5.49zm8.83 0H141v-9.34h-1.98l.26 1.58v9.16h5.53zm-30.49.28l3.76-5.21.56-.97v7.3h1.93l-.21-1.32v-9.42h-1.09l-4.87 6.95-5.48-6.91-1.17-.04.24 1.55v9.19h1.74l-.21-1.32v-5.96l.57 1.03zm11.09-9.62h-1.98l.26 1.58v9.16H127l-.2-1.32zm22.99 1.35h4.35v-1.35h-6.33l.26 1.58v9.16h5.48l1.36-1.36h-5.12v-3.48h1.64l1.35-1.35h-2.99zm20.27-1.35h-1.98l.26 1.58v9.16h1.92l-.2-1.32zm-11.12 5.46v-4.1h1.13c1.33 0 2.49.65 2.49 1.92 0 1.19-1.15 2.18-2.49 2.18h-1.13zm6.96 5.28l-3.74-4.39c1.33-.63 2.22-1.84 2.22-3.07 0-2.25-1.96-3.28-3.98-3.28h-3.44l.26 1.58v9.16h1.92l-.2-1.31v-2.61l1.52-.02 2.85 3.52.39.42h2.2z"/><path d="M95.73 84.69a6.03 6.03 0 0 0-3.91-1.37c-3.29 0-5.95 2.51-5.95 5.93 0 3.58 2.8 5.48 5.7 5.48 2.36 0 4.14-1.29 4.34-1.45l-1-1c-.7.4-1.92.99-3.06.99-2.04 0-4.12-1.56-4.12-4.18 0-2.24 1.63-4.38 3.99-4.38 1.12 0 2.08.39 2.91 1.08l1.1-1.1z"/></g><defs ><path id="B" d="M38.13 90.34h-3.34l1.52-3.5.22-.61.18.61 1.42 3.5zm3.7 4.17l-.97-1.9-3.7-9.06-1.03.22-4.69 10.74h1.62l1.19-2.79h4.41l1.15 2.79h2.02z"/></defs></svg>